<svg xmlns="http://www.w3.org/2000/svg" xmlns:lucid="lucid" width="1245" height="1245"><g lucid:page-tab-id="0_0"><g class="lucid-layer" fill="#FDD835" lucid:layer-id="X7Zsy.pE0JQi" display="block"><path d="M215 1026c0-3.3 2.7-6 6-6h808c3.3 0 6 2.7 6 6v33c0 3.3-2.7 6-6 6H221c-3.3 0-6-2.7-6-6z" fill="#FDD835"/><path d="M1225 622.5c0 332.75-269.75 602.5-602.5 602.5S20 955.25 20 622.5 289.75 20 622.5 20 1225 289.75 1225 622.5z" stroke="#FDD835" stroke-opacity="0" stroke-width="3" fill-opacity="0"/><path d="M235 186c0-3.3 2.7-6 6-6h768c3.3 0 6 2.7 6 6v8c0 3.3-2.7 6-6 6H241c-3.3 0-6-2.7-6-6z" fill="#FDD835"/><path d="M1001 1025c-3.3 0-6-2.7-6-6V186c0-3.3 2.7-6 6-6h8c3.3 0 6 2.7 6 6v833c0 3.3-2.7 6-6 6zM241 1025c-3.3 0-6-2.7-6-6V186c0-3.3 2.7-6 6-6h8c3.3 0 6 2.7 6 6v833c0 3.3-2.7 6-6 6z" fill="#FDD835"/></g><g class="lucid-layer" fill="#FDD835" lucid:layer-id="ATZsIxCD-QD6" display="block" stroke="#727272" stroke-width="8" ><path d="M265 1000h715l-60.07-41.58c-2.72-1.9-7.62-3.42-10.93-3.42H346c-3.3 0-8.3 1.38-11.14 3.1zM265 920h715l-60.07-41.58c-2.72-1.9-7.62-3.42-10.93-3.42H346c-3.3 0-8.3 1.38-11.14 3.1zM265 840h715l-60.07-41.58c-2.72-1.9-7.62-3.42-10.93-3.42H346c-3.3 0-8.3 1.38-11.14 3.1zM265 760h715l-60.07-41.58c-2.72-1.9-7.62-3.42-10.93-3.42H346c-3.3 0-8.3 1.38-11.14 3.1zM265 680h715l-60.07-41.58c-2.72-1.9-7.62-3.42-10.93-3.42H346c-3.3 0-8.3 1.38-11.14 3.1zM265 600h715l-60.07-41.58c-2.72-1.9-7.62-3.42-10.93-3.42H346c-3.3 0-8.3 1.38-11.14 3.1zM265 520h715l-60.07-41.58c-2.72-1.9-7.62-3.42-10.93-3.42H346c-3.3 0-8.3 1.38-11.14 3.1zM265 440h715l-60.07-41.58c-2.72-1.9-7.62-3.42-10.93-3.42H346c-3.3 0-8.3 1.38-11.14 3.1zM265 360h715l-60.07-41.58c-2.72-1.9-7.62-3.42-10.93-3.42H346c-3.3 0-8.3 1.38-11.14 3.1zM265 280h715l-60.07-41.58c-2.72-1.9-7.62-3.42-10.93-3.42H346c-3.3 0-8.3 1.38-11.14 3.1z"/></g><g class="lucid-layer" fill="#FDD835" lucid:layer-id="o7ZsoYZKMWB9" display="block"><path d="M948.94 830c0 38.97-34.46 70.56-76.97 70.56-42.5 0-76.97-31.6-76.97-70.56 0-38.97 34.46-70.56 76.97-70.56 42.5 0 76.97 31.6 76.97 70.56z" fill="#727272"/><path d="M833.62 206c0-3.3 2.7-6 6-6h64.7c3.3 0 6 2.7 6 6v658c0 3.3-2.7 6-6 6h-64.7c-3.3 0-6-2.7-6-6z" fill="#727272"/><path d="M857.56 206c0-3.3 2.68-6 6-6h16.82c3.32 0 6 2.7 6 6v618c0 3.3-2.68 6-6 6h-16.82c-3.32 0-6-2.7-6-6z"/><path d="M921.15 832.5c0 24.9-22.02 45.08-49.18 45.08S822.8 857.4 822.8 832.5s22-45.08 49.17-45.08c27.16 0 49.18 20.18 49.18 45.08z"/></g></g></svg>