<svg xmlns="http://www.w3.org/2000/svg" xmlns:lucid="lucid" width="1245" height="1245"><g lucid:page-tab-id="0_0"><g class="lucid-layer" fill="#FDD835" lucid:layer-id="YUZs1fzwp_u_" display="block"><path d="M980 200H265l14.3 124.04c.4 3.3 3.4 5.96 6.7 5.96h673c3.3 0 6.3-2.67 6.7-5.96z" stroke="#727272" stroke-width="10" fill="#FDD835"/><path d="M980 280H265l14.3 124.04c.4 3.3 3.4 5.96 6.7 5.96h673c3.3 0 6.3-2.67 6.7-5.96z" stroke="#727272" stroke-width="10" fill="#FDD835"/><path d="M980 360H265l14.3 124.04c.4 3.3 3.4 5.96 6.7 5.96h673c3.3 0 6.3-2.67 6.7-5.96z" stroke="#727272" stroke-width="10" fill="#FDD835"/><path d="M980 440H265l14.3 124.04c.4 3.3 3.4 5.96 6.7 5.96h673c3.3 0 6.3-2.67 6.7-5.96z" stroke="#727272" stroke-width="10" fill="#FDD835"/><path d="M980 520H265l14.3 124.04c.4 3.3 3.4 5.96 6.7 5.96h673c3.3 0 6.3-2.67 6.7-5.96z" stroke="#727272" stroke-width="10" fill="#FDD835"/><path d="M980 600H265l14.3 124.04c.4 3.3 3.4 5.96 6.7 5.96h673c3.3 0 6.3-2.67 6.7-5.96z" stroke="#727272" stroke-width="10" fill="#FDD835"/><path d="M980 680H265l14.3 124.04c.4 3.3 3.4 5.96 6.7 5.96h673c3.3 0 6.3-2.67 6.7-5.96z" stroke="#727272" stroke-width="10" fill="#FDD835"/><path d="M980 760H265l14.3 124.04c.4 3.3 3.4 5.96 6.7 5.96h673c3.3 0 6.3-2.67 6.7-5.96z" stroke="#727272" stroke-width="10" fill="#FDD835"/><path d="M980 840H265l14.3 124.04c.4 3.3 3.4 5.96 6.7 5.96h673c3.3 0 6.3-2.67 6.7-5.96z" stroke="#727272" stroke-width="10" fill="#FDD835"/><path d="M980 920H265l14.3 124.04c.4 3.3 3.4 5.96 6.7 5.96h673c3.3 0 6.3-2.67 6.7-5.96z" stroke="#727272" stroke-width="10" fill="#FDD835"/></g><g class="lucid-layer" fill="#FDD835" lucid:layer-id="X7Zsy.pE0JQi" display="block"><path d="M215 1026c0-3.3 2.7-6 6-6h808c3.3 0 6 2.7 6 6v33c0 3.3-2.7 6-6 6H221c-3.3 0-6-2.7-6-6z" fill="#FDD835"/><path d="M1225 622.5c0 332.75-269.75 602.5-602.5 602.5S20 955.25 20 622.5 289.75 20 622.5 20 1225 289.75 1225 622.5z" stroke="#FDD835" stroke-opacity="0" stroke-width="3" fill-opacity="0"/><path d="M233 186c0-3.3 2.7-6 6-6h768c3.3 0 6 2.7 6 6v8c0 3.3-2.7 6-6 6H239c-3.3 0-6-2.7-6-6z" fill="#FDD835"/><path d="M999 1025c-3.3 0-6-2.7-6-6V186c0-3.3 2.7-6 6-6h8c3.3 0 6 2.7 6 6v833c0 3.3-2.7 6-6 6zM239 1025c-3.3 0-6-2.7-6-6V186c0-3.3 2.7-6 6-6h8c3.3 0 6 2.7 6 6v833c0 3.3-2.7 6-6 6z" fill="#FDD835"/></g><g class="lucid-layer" fill="#FDD835" lucid:layer-id="o7ZsoYZKMWB9" display="block"><path d="M948.94 830c0 38.97-34.46 70.56-76.97 70.56-42.5 0-76.97-31.6-76.97-70.56 0-38.97 34.46-70.56 76.97-70.56 42.5 0 76.97 31.6 76.97 70.56z" fill="#727272"/><path d="M833.62 206c0-3.3 2.7-6 6-6h64.7c3.3 0 6 2.7 6 6v658c0 3.3-2.7 6-6 6h-64.7c-3.3 0-6-2.7-6-6z" fill="#727272"/><path d="M857.56 206c0-3.3 2.68-6 6-6h16.82c3.32 0 6 2.7 6 6v618c0 3.3-2.68 6-6 6h-16.82c-3.32 0-6-2.7-6-6z"/><path d="M921.15 832.5c0 24.9-22.02 45.08-49.18 45.08S822.8 857.4 822.8 832.5s22-45.08 49.17-45.08c27.16 0 49.18 20.18 49.18 45.08z"/><path d="M215 1026c0-3.3 2.7-6 6-6h808c3.3 0 6 2.7 6 6v33c0 3.3-2.7 6-6 6H221c-3.3 0-6-2.7-6-6z" fill="#FDD835"/></g></g></svg>