<svg xmlns="http://www.w3.org/2000/svg" xmlns:lucid="lucid" width="1245" height="1245"><g lucid:page-tab-id="0_0"><g class="lucid-layer" fill="#44739e" lucid:layer-id="X7Zsy.pE0JQi" display="block"><path d="M212.5 1026c0-3.3 2.7-6 6-6h808c3.3 0 6 2.7 6 6v33c0 3.3-2.7 6-6 6h-808c-3.3 0-6-2.7-6-6z" fill="#44739e"/><path d="M1225 622.5c0 332.75-269.75 602.5-602.5 602.5S20 955.25 20 622.5 289.75 20 622.5 20 1225 289.75 1225 622.5z" stroke="#44739e" stroke-opacity="0" stroke-width="2" fill-opacity="0"/><path d="M232.5 186c0-3.3 2.7-6 6-6h768c3.3 0 6 2.7 6 6v8c0 3.3-2.7 6-6 6h-768c-3.3 0-6-2.7-6-6z" fill="#44739e"/><path d="M998.5 1025c-3.3 0-6-2.7-6-6V186c0-3.3 2.7-6 6-6h8c3.3 0 6 2.7 6 6v833c0 3.3-2.7 6-6 6zM238.5 1025c-3.3 0-6-2.7-6-6V186c0-3.3 2.7-6 6-6h8c3.3 0 6 2.7 6 6v833c0 3.3-2.7 6-6 6z" fill="#44739e"/></g><g class="lucid-layer" fill="#44739e" lucid:layer-id="8TZs0TPV5gKU" display="block" stroke="#44739e" stroke-width="6"><path d="M262.5 985h715l-89.07-14.06c-3.28-.52-8.62-.94-11.93-.94h-503c-3.3 0-8.66.38-11.94.85zM262.5 905h715l-89.07-14.06c-3.28-.52-8.62-.94-11.93-.94h-503c-3.3 0-8.66.38-11.94.85zM262.5 825h715l-89.07-14.06c-3.28-.52-8.62-.94-11.93-.94h-503c-3.3 0-8.66.38-11.94.85zM262.5 745h715l-89.07-14.06c-3.28-.52-8.62-.94-11.93-.94h-503c-3.3 0-8.66.38-11.94.85zM262.5 665h715l-89.07-14.06c-3.28-.52-8.62-.94-11.93-.94h-503c-3.3 0-8.66.38-11.94.85zM262.5 585h715l-89.07-14.06c-3.28-.52-8.62-.94-11.93-.94h-503c-3.3 0-8.66.38-11.94.85zM262.5 425h715l-89.07-14.06c-3.28-.52-8.62-.94-11.93-.94h-503c-3.3 0-8.66.38-11.94.85zM262.5 505h715l-89.07-14.06c-3.28-.52-8.62-.94-11.93-.94h-503c-3.3 0-8.66.38-11.94.85zM262.5 345h715l-89.07-14.06c-3.28-.52-8.62-.94-11.93-.94h-503c-3.3 0-8.66.38-11.94.85zM262.5 265h715l-89.07-14.06c-3.28-.52-8.62-.94-11.93-.94h-503c-3.3 0-8.66.38-11.94.85z"/></g><g class="lucid-layer" fill="#44739e" lucid:layer-id="o7ZsoYZKMWB9" display="block"><path d="M946.44 830c0 38.97-34.46 70.56-76.97 70.56-42.5 0-76.97-31.6-76.97-70.56 0-38.97 34.46-70.56 76.97-70.56 42.5 0 76.97 31.6 76.97 70.56z" fill="#fff"/><path d="M831.12 206c0-3.3 2.7-6 6-6h64.7c3.3 0 6 2.7 6 6v658c0 3.3-2.7 6-6 6h-64.7c-3.3 0-6-2.7-6-6z" fill="#fff"/><path d="M855.06 206c0-3.3 2.68-6 6-6h16.82c3.32 0 6 2.7 6 6v618c0 3.3-2.68 6-6 6h-16.82c-3.32 0-6-2.7-6-6z"/><path d="M918.65 832.5c0 24.9-22.02 45.08-49.18 45.08S820.3 857.4 820.3 832.5s22-45.08 49.17-45.08c27.16 0 49.18 20.18 49.18 45.08z"/></g></g></svg>