<svg xmlns="http://www.w3.org/2000/svg" xmlns:lucid="lucid" width="1245" height="1245"><g lucid:page-tab-id="0_0"><g class="lucid-layer" fill="#44739e" lucid:layer-id="LUZs8gH55HUp" display="block"><path d="M977.5 215h-715l51.74 79.96c1.8 2.78 5.95 5.04 9.26 5.04h589.67c3.3 0 7.52-2.2 9.4-4.95z" stroke="#fff" stroke-width="10" fill="#44739e"/><path d="M977.5 295h-715l51.74 79.96c1.8 2.78 5.95 5.04 9.26 5.04h589.67c3.3 0 7.52-2.2 9.4-4.95z" stroke="#fff" stroke-width="10" fill="#44739e"/><path d="M977.5 375h-715l51.74 79.96c1.8 2.78 5.95 5.04 9.26 5.04h589.67c3.3 0 7.52-2.2 9.4-4.95z" stroke="#fff" stroke-width="10" fill="#44739e"/><path d="M977.5 455h-715l51.74 79.96c1.8 2.78 5.95 5.04 9.26 5.04h589.67c3.3 0 7.52-2.2 9.4-4.95z" stroke="#fff" stroke-width="10" fill="#44739e"/><path d="M977.5 535h-715l51.74 79.96c1.8 2.78 5.95 5.04 9.26 5.04h589.67c3.3 0 7.52-2.2 9.4-4.95z" stroke="#fff" stroke-width="10" fill="#44739e"/><path d="M977.5 615h-715l51.74 79.96c1.8 2.78 5.95 5.04 9.26 5.04h589.67c3.3 0 7.52-2.2 9.4-4.95z" stroke="#fff" stroke-width="10" fill="#44739e"/><path d="M977.5 695h-715l51.74 79.96c1.8 2.78 5.95 5.04 9.26 5.04h589.67c3.3 0 7.52-2.2 9.4-4.95z" stroke="#fff" stroke-width="10" fill="#44739e"/><path d="M977.5 775h-715l51.74 79.96c1.8 2.78 5.95 5.04 9.26 5.04h589.67c3.3 0 7.52-2.2 9.4-4.95z" stroke="#fff" stroke-width="10" fill="#44739e"/><path d="M977.5 855h-715l51.74 79.96c1.8 2.78 5.95 5.04 9.26 5.04h589.67c3.3 0 7.52-2.2 9.4-4.95z" stroke="#fff" stroke-width="10" fill="#44739e"/><path d="M977.5 935h-715l51.74 79.96c1.8 2.78 5.95 5.04 9.26 5.04h589.67c3.3 0 7.52-2.2 9.4-4.95z" stroke="#fff" stroke-width="10" fill="#44739e"/></g><g class="lucid-layer" fill="#44739e" lucid:layer-id="X7Zsy.pE0JQi" display="block"><path d="M212.5 1026c0-3.3 2.7-6 6-6h808c3.3 0 6 2.7 6 6v33c0 3.3-2.7 6-6 6h-808c-3.3 0-6-2.7-6-6z" fill="#44739e"/><path d="M1225 622.5c0 332.75-269.75 602.5-602.5 602.5S20 955.25 20 622.5 289.75 20 622.5 20 1225 289.75 1225 622.5z" stroke="#44739e" stroke-opacity="0" stroke-width="3" fill-opacity="0"/><path d="M232.5 186c0-3.3 2.7-6 6-6h768c3.3 0 6 2.7 6 6v8c0 3.3-2.7 6-6 6h-768c-3.3 0-6-2.7-6-6z" fill="#44739e"/><path d="M998.5 1025c-3.3 0-6-2.7-6-6V186c0-3.3 2.7-6 6-6h8c3.3 0 6 2.7 6 6v833c0 3.3-2.7 6-6 6zM238.5 1025c-3.3 0-6-2.7-6-6V186c0-3.3 2.7-6 6-6h8c3.3 0 6 2.7 6 6v833c0 3.3-2.7 6-6 6z" fill="#44739e"/></g><g class="lucid-layer" fill="#44739e" lucid:layer-id="o7ZsoYZKMWB9" display="block"><path d="M946.44 830c0 38.97-34.46 70.56-76.97 70.56-42.5 0-76.97-31.6-76.97-70.56 0-38.97 34.46-70.56 76.97-70.56 42.5 0 76.97 31.6 76.97 70.56z" fill="#fff"/><path d="M831.12 206c0-3.3 2.7-6 6-6h64.7c3.3 0 6 2.7 6 6v658c0 3.3-2.7 6-6 6h-64.7c-3.3 0-6-2.7-6-6z" fill="#fff"/><path d="M855.06 206c0-3.3 2.68-6 6-6h16.82c3.32 0 6 2.7 6 6v618c0 3.3-2.68 6-6 6h-16.82c-3.32 0-6-2.7-6-6z"/><path d="M918.65 832.5c0 24.9-22.02 45.08-49.18 45.08S820.3 857.4 820.3 832.5s22-45.08 49.17-45.08c27.16 0 49.18 20.18 49.18 45.08z"/></g></g></svg>