<svg xmlns="http://www.w3.org/2000/svg" xmlns:lucid="lucid" width="1245" height="1245"><g lucid:page-tab-id="0_0"><g class="lucid-layer" fill="#44739e" lucid:layer-id="nSZsX06t.m7T" display="block" stroke="#fff" stroke-width="10" ><path d="M265 687.5h715l-14.3-124.04c-.4-3.3-3.4-5.96-6.7-5.96H286c-3.3 0-6.3 2.67-6.7 5.96z"/><path d="M265 647.5h715l-14.3-124.04c-.4-3.3-3.4-5.96-6.7-5.96H286c-3.3 0-6.3 2.67-6.7 5.96z"/><path d="M265 607.5h715l-14.3-124.04c-.4-3.3-3.4-5.96-6.7-5.96H286c-3.3 0-6.3 2.67-6.7 5.96z"/><path d="M265 567.5h715l-14.3-124.04c-.4-3.3-3.4-5.96-6.7-5.96H286c-3.3 0-6.3 2.67-6.7 5.96z"/><path d="M265 527.5h715l-14.3-124.04c-.4-3.3-3.4-5.96-6.7-5.96H286c-3.3 0-6.3 2.67-6.7 5.96z"/><path d="M265 487.5h715l-14.3-124.04c-.4-3.3-3.4-5.96-6.7-5.96H286c-3.3 0-6.3 2.67-6.7 5.96z"/><path d="M265 447.5h715l-14.3-124.04c-.4-3.3-3.4-5.96-6.7-5.96H286c-3.3 0-6.3 2.67-6.7 5.96z"/><path d="M265 407.5h715l-14.3-124.04c-.4-3.3-3.4-5.96-6.7-5.96H286c-3.3 0-6.3 2.67-6.7 5.96z"/><path d="M265 367.5h715l-14.3-124.04c-.4-3.3-3.4-5.96-6.7-5.96H286c-3.3 0-6.3 2.67-6.7 5.96z"/><path d="M265 327.5h715l-14.3-124.04c-.4-3.3-3.4-5.96-6.7-5.96H286c-3.3 0-6.3 2.67-6.7 5.96z"/></g><g class="lucid-layer" fill="#44739e" lucid:layer-id="X7Zsy.pE0JQi" display="block"><path d="M215 1023.5c0-3.3 2.7-6 6-6h808c3.3 0 6 2.7 6 6v33c0 3.3-2.7 6-6 6H221c-3.3 0-6-2.7-6-6z" fill="#44739e"/><path d="M1225 622.5c0 332.75-269.75 602.5-602.5 602.5S20 955.25 20 622.5 289.75 20 622.5 20 1225 289.75 1225 622.5z" stroke="#44739e" stroke-opacity="0" stroke-width="3" fill-opacity="0"/><path d="M233 183.5c0-3.3 2.7-6 6-6h768c3.3 0 6 2.7 6 6v8c0 3.3-2.7 6-6 6H239c-3.3 0-6-2.7-6-6z" fill="#44739e"/><path d="M999 1022.5c-3.3 0-6-2.7-6-6v-833c0-3.3 2.7-6 6-6h8c3.3 0 6 2.7 6 6v833c0 3.3-2.7 6-6 6zM239 1022.5c-3.3 0-6-2.7-6-6v-833c0-3.3 2.7-6 6-6h8c3.3 0 6 2.7 6 6v833c0 3.3-2.7 6-6 6z" fill="#44739e"/></g><g class="lucid-layer" fill="#44739e" lucid:layer-id="o7ZsoYZKMWB9" display="block"><path d="M948.94 827.5c0 38.97-34.46 70.56-76.97 70.56-42.5 0-76.97-31.6-76.97-70.56 0-38.97 34.46-70.56 76.97-70.56 42.5 0 76.97 31.6 76.97 70.56z" fill="#fff"/><path d="M833.62 203.5c0-3.3 2.7-6 6-6h64.7c3.3 0 6 2.7 6 6v658c0 3.3-2.7 6-6 6h-64.7c-3.3 0-6-2.7-6-6z" fill="#fff"/><path d="M857.56 203.5c0-3.3 2.68-6 6-6h16.82c3.32 0 6 2.7 6 6v618c0 3.3-2.68 6-6 6h-16.82c-3.32 0-6-2.7-6-6z"/><path d="M921.15 830c0 24.9-22.02 45.08-49.18 45.08S822.8 854.9 822.8 830s22-45.08 49.17-45.08c27.16 0 49.18 20.18 49.18 45.08z"/></g></g></svg>