<svg xmlns="http://www.w3.org/2000/svg" xmlns:lucid="lucid" width="1552.5" height="1552.5"><g lucid:page-tab-id="0_0"><g class="lucid-layer" fill="#44739e" lucid:layer-id="zUZs.QaUaPt5" display="block"><path d="M337.9 302.74v944.82l6.54-79.9c.27-3.32.5-8.68.5-12v-747.8c0-3.33-.2-8.7-.44-12zM325.38 302.74v944.82l6.55-79.9c.27-3.32.5-8.68.5-12v-747.8c0-3.33-.2-8.7-.44-12zM312.87 302.74v944.82l6.55-79.9c.27-3.32.5-8.68.5-12v-747.8c0-3.33-.2-8.7-.43-12zM300.37 302.74v944.82l6.54-79.9c.28-3.32.5-8.68.5-12v-747.8c0-3.33-.2-8.7-.42-12zM287.86 302.74v944.82l6.54-79.9c.27-3.32.5-8.68.5-12v-747.8c0-3.33-.2-8.7-.43-12zM275.35 302.74v944.82l6.55-79.9c.27-3.32.5-8.68.5-12v-747.8c0-3.33-.2-8.7-.44-12zM262.84 302.74v944.82l6.55-79.9c.26-3.32.48-8.68.48-12v-747.8c0-3.33-.2-8.7-.43-12zM250.33 302.74v944.82l6.55-79.9c.27-3.32.5-8.68.5-12v-747.8c0-3.33-.2-8.7-.44-12zM237.43 304.2v944.82l6.55-79.9c.27-3.3.5-8.68.5-12v-747.8c0-3.32-.2-8.7-.43-12zM224.93 304.2v944.82l6.54-79.9c.27-3.3.5-8.68.5-12v-747.8c0-3.32-.2-8.7-.43-12z" stroke="#fff"/><path d="M423.82 932.74c0 38.97-34.46 70.56-76.97 70.56-42.5 0-76.97-31.6-76.97-70.56 0-38.97 34.46-70.56 76.97-70.56 42.5 0 76.97 31.6 76.97 70.56z" fill="#fff"/><path d="M308.5 308.74c0-3.3 2.7-6 6-6h64.7c3.3 0 6 2.7 6 6v658c0 3.3-2.7 6-6 6h-64.7c-3.3 0-6-2.7-6-6z" fill="#fff"/><path d="M332.43 308.74c0-3.3 2.7-6 6-6h16.83c3.32 0 6 2.7 6 6v618c0 3.3-2.68 6-6 6h-16.83c-3.3 0-6-2.7-6-6z"/><path d="M396.03 935.24c0 24.9-22.02 45.08-49.18 45.08s-49.18-20.18-49.18-45.08 22.02-45.08 49.18-45.08 49.18 20.18 49.18 45.08z"/></g><g class="lucid-layer" fill="#44739e" lucid:layer-id="X7Zsy.pE0JQi" display="block"><path d="M220 1255.02c0-3.3 2.7-6 6-6h1100.5c3.3 0 6 2.7 6 6v21.72c0 3.3-2.7 6-6 6H226c-3.3 0-6-2.7-6-6z" fill="#44739e"/><path d="M1532.5 776.25c0 417.67-338.58 756.25-756.25 756.25S20 1193.92 20 776.25 358.58 20 776.25 20s756.25 338.58 756.25 756.25z" stroke="#44739e" stroke-opacity="0" stroke-width="3" fill-opacity="0"/><path d="M220 275.02c0-3.3 2.7-6 6-6h1100.5c3.3 0 6 2.7 6 6v21.72c0 3.3-2.7 6-6 6H226c-3.3 0-6-2.7-6-6z" fill="#44739e"/></g></g></svg>