<svg xmlns="http://www.w3.org/2000/svg" xmlns:lucid="lucid" width="1552.5" height="1552.5"><g lucid:page-tab-id="0_0"><g class="lucid-layer" lucid:layer-id="RSZsGGaHIzMU" display="block"><path d="M1332.5 1249.02V302.74l-165.2 19.16c-3.3.38-5.95 3.38-5.95 6.7v894.57c0 3.3 2.66 6.3 5.96 6.7z" stroke="#fff" stroke-width="10" fill="#ccc"/><path d="M1233.76 1249.02V302.74l-165.2 19.16c-3.3.38-5.96 3.38-5.96 6.7v894.57c0 3.3 2.67 6.3 5.96 6.7z" stroke="#fff" stroke-width="10" fill="#ccc"/><path d="M1128.43 1249.02V302.74l-165.2 19.16c-3.28.38-5.95 3.38-5.95 6.7v894.57c0 3.3 2.67 6.3 5.96 6.7z" stroke="#fff" stroke-width="10" fill="#ccc"/><path d="M1023.1 1249.02V302.74L857.9 321.9c-3.28.38-5.95 3.38-5.95 6.7v894.57c0 3.3 2.67 6.3 5.96 6.7z" stroke="#fff" stroke-width="10" fill="#ccc"/><path d="M917.78 1249.02V302.74l-165.2 19.16c-3.28.38-5.95 3.38-5.95 6.7v894.57c0 3.3 2.67 6.3 5.96 6.7z" stroke="#fff" stroke-width="10" fill="#ccc"/><path d="M812.46 1249.02V302.74l-165.2 19.16c-3.3.38-5.96 3.38-5.96 6.7v894.57c0 3.3 2.67 6.3 5.96 6.7z" stroke="#fff" stroke-width="10" fill="#ccc"/><path d="M707.13 1249.02V302.74l-165.2 19.16c-3.3.38-5.95 3.38-5.95 6.7v894.57c0 3.3 2.66 6.3 5.96 6.7z" stroke="#fff" stroke-width="10" fill="#ccc"/><path d="M601.8 1249.02V302.74L436.6 321.9c-3.28.38-5.95 3.38-5.95 6.7v894.57c0 3.3 2.67 6.3 5.96 6.7z" stroke="#fff" stroke-width="10" fill="#ccc"/><path d="M496.48 1249.02V302.74l-165.2 19.16c-3.3.38-5.95 3.38-5.95 6.7v894.57c0 3.3 2.66 6.3 5.96 6.7z" stroke="#fff" stroke-width="10" fill="#ccc"/><path d="M391.15 1249.02V302.74l-165.2 19.16c-3.28.38-5.95 3.38-5.95 6.7v894.57c0 3.3 2.67 6.3 5.96 6.7z" stroke="#fff" stroke-width="10" fill="#ccc"/></g><g class="lucid-layer" lucid:layer-id="X7Zsy.pE0JQi" display="block"><path d="M220 1255.02c0-3.3 2.7-6 6-6h1100.5c3.3 0 6 2.7 6 6v21.72c0 3.3-2.7 6-6 6H226c-3.3 0-6-2.7-6-6z" fill="#333"/><path d="M1532.5 776.25c0 417.67-338.58 756.25-756.25 756.25S20 1193.92 20 776.25 358.58 20 776.25 20s756.25 338.58 756.25 756.25z" stroke="#000" stroke-opacity="0" fill-opacity="0"/><path d="M220 275.02c0-3.3 2.7-6 6-6h1100.5c3.3 0 6 2.7 6 6v21.72c0 3.3-2.7 6-6 6H226c-3.3 0-6-2.7-6-6z" fill="#333"/></g><g class="lucid-layer" lucid:layer-id="o7ZsoYZKMWB9" display="block"><path d="M1233.76 932.74c0 38.97-34.46 70.56-76.97 70.56-42.52 0-76.98-31.6-76.98-70.56 0-38.97 34.46-70.56 76.97-70.56 42.5 0 76.96 31.6 76.96 70.56z" fill="#fff"/><path d="M1118.44 308.74c0-3.3 2.7-6 6-6h64.7c3.3 0 6 2.7 6 6v658c0 3.3-2.7 6-6 6h-64.7c-3.3 0-6-2.7-6-6z" fill="#fff"/><path d="M1142.37 308.74c0-3.3 2.7-6 6-6h16.83c3.3 0 6 2.7 6 6v618c0 3.3-2.7 6-6 6h-16.83c-3.3 0-6-2.7-6-6z"/><path d="M1205.97 935.24c0 24.9-22.02 45.08-49.18 45.08-27.18 0-49.2-20.18-49.2-45.08s22.02-45.08 49.2-45.08c27.15 0 49.17 20.18 49.17 45.08z"/></g></g></svg>