<svg xmlns="http://www.w3.org/2000/svg" xmlns:lucid="lucid" width="1552.5" height="1552.5"><g lucid:page-tab-id="0_0"><g class="lucid-layer" lucid:layer-id="8TZs0TPV5gKU" display="block"><path d="M1325.6 1260.2V286.85l-21.42 123.4c-.57 3.28-1.03 8.6-1.03 11.92v689.08c0 3.3.42 8.65.93 11.92zM1205.87 1260.2V286.85l-21.42 123.4c-.57 3.28-1.03 8.6-1.03 11.92v689.08c0 3.3.42 8.65.93 11.92zM1086.14 1260.2V286.85l-21.42 123.4c-.57 3.28-1.03 8.6-1.03 11.92v689.08c0 3.3.4 8.65.93 11.92zM966.42 1260.2V286.85L945 410.26c-.57 3.28-1.03 8.6-1.03 11.92v689.08c0 3.3.4 8.65.93 11.92zM846.7 1260.2V286.85l-21.43 123.4c-.57 3.28-1.03 8.6-1.03 11.92v689.08c0 3.3.42 8.65.93 11.92zM726.96 1260.2v-195.62-777.72l-21.42 123.4c-.57 3.28-1.03 8.6-1.03 11.92v689.08c0 3.3.43 8.65.94 11.92zM487.5 1260.2V286.85l-21.42 123.4c-.57 3.28-1.02 8.6-1.02 11.92v689.08c0 3.3.4 8.65.93 11.92zM607.23 1260.2V286.85l-21.42 123.4c-.56 3.28-1.02 8.6-1.02 11.92v689.08c0 3.3.42 8.65.93 11.92zM367.78 1260.2V286.85l-21.43 123.4c-.56 3.28-1.02 8.6-1.02 11.92v689.08c0 3.3.4 8.65.93 11.92zM248.05 1260.2V286.85l-21.42 123.4c-.57 3.28-1.03 8.6-1.03 11.92v689.08c0 3.3.42 8.65.93 11.92z" stroke="#fff" stroke-width="5" fill="#5e5e5e"/></g><g class="lucid-layer" lucid:layer-id="X7Zsy.pE0JQi" display="block" stroke="#000" stroke-opacity="0" stroke-width="3"><path d="M220 1255.02c0-3.3 2.7-6 6-6h1100.5c3.3 0 6 2.7 6 6v21.72c0 3.3-2.7 6-6 6H226c-3.3 0-6-2.7-6-6z" fill="#333"/><path d="M1532.5 776.25c0 417.67-338.58 756.25-756.25 756.25S20 1193.92 20 776.25 358.58 20 776.25 20s756.25 338.58 756.25 756.25z" fill-opacity="0"/><path d="M220 275.02c0-3.3 2.7-6 6-6h1100.5c3.3 0 6 2.7 6 6v21.72c0 3.3-2.7 6-6 6H226c-3.3 0-6-2.7-6-6z" fill="#333"/></g><g class="lucid-layer" lucid:layer-id="o7ZsoYZKMWB9" display="block"><path d="M1245.68 932.74c0 38.97-34.46 70.56-76.97 70.56-42.5 0-76.96-31.6-76.96-70.56 0-38.97 34.46-70.56 76.97-70.56 42.52 0 76.98 31.6 76.98 70.56z" fill="#fff"/><path d="M1130.37 308.74c0-3.3 2.68-6 6-6h64.7c3.3 0 6 2.7 6 6v658c0 3.3-2.7 6-6 6h-64.7c-3.32 0-6-2.7-6-6z" fill="#fff"/><path d="M1154.3 308.74c0-3.3 2.7-6 6-6h16.83c3.3 0 6 2.7 6 6v618c0 3.3-2.7 6-6 6h-16.83c-3.3 0-6-2.7-6-6z"/><path d="M1217.9 935.24c0 24.9-22.02 45.08-49.2 45.08-27.15 0-49.17-20.18-49.17-45.08s22.02-45.08 49.18-45.08c27.18 0 49.2 20.18 49.2 45.08z"/></g></g></svg>