<svg xmlns="http://www.w3.org/2000/svg" xmlns:lucid="lucid" width="1552.5" height="1552.5"><g lucid:page-tab-id="0_0"><g class="lucid-layer" lucid:layer-id="YUZs1fzwp_u_" display="block"><path d="M220 302.74v946.28l163.2-19.15c3.3-.4 5.96-3.4 5.96-6.7V328.6c0-3.32-2.67-6.32-5.96-6.7z" stroke="#fff" stroke-width="10" fill="#ccc"/><path d="M324.1 302.74v946.28l163.2-19.15c3.3-.4 5.96-3.4 5.96-6.7V328.6c0-3.32-2.67-6.32-5.96-6.7z" stroke="#fff" stroke-width="10" fill="#ccc"/><path d="M428.2 302.74v946.28l163.2-19.15c3.3-.4 5.96-3.4 5.96-6.7V328.6c0-3.32-2.67-6.32-5.96-6.7z" stroke="#fff" stroke-width="10" fill="#ccc"/><path d="M532.3 302.74v946.28l163.2-19.15c3.3-.4 5.96-3.4 5.96-6.7V328.6c0-3.32-2.67-6.32-5.96-6.7z" stroke="#fff" stroke-width="10" fill="#ccc"/><path d="M636.4 302.74v946.28l163.2-19.15c3.3-.4 5.95-3.4 5.95-6.7V328.6c0-3.32-2.66-6.32-5.95-6.7z" stroke="#fff" stroke-width="10" fill="#ccc"/><path d="M740.5 302.74v946.28l163.2-19.15c3.28-.4 5.95-3.4 5.95-6.7V328.6c0-3.32-2.67-6.32-5.96-6.7z" stroke="#fff" stroke-width="10" fill="#ccc"/><path d="M844.6 302.74v946.28l163.2-19.15c3.28-.4 5.95-3.4 5.95-6.7V328.6c0-3.32-2.67-6.32-5.96-6.7z" stroke="#fff" stroke-width="10" fill="#ccc"/><path d="M948.7 302.74v946.28l163.2-19.15c3.28-.4 5.95-3.4 5.95-6.7V328.6c0-3.32-2.67-6.32-5.96-6.7z" stroke="#fff" stroke-width="10" fill="#ccc"/><path d="M1052.8 302.74v946.28l163.2-19.15c3.28-.4 5.95-3.4 5.95-6.7V328.6c0-3.32-2.67-6.32-5.96-6.7z" stroke="#fff" stroke-width="10" fill="#ccc"/><path d="M1156.9 302.74v946.28l163.2-19.15c3.28-.4 5.95-3.4 5.95-6.7V328.6c0-3.32-2.67-6.32-5.96-6.7z" stroke="#fff" stroke-width="10" fill="#ccc"/></g><g class="lucid-layer" lucid:layer-id="X7Zsy.pE0JQi" display="block"><path d="M220 1255.02c0-3.3 2.7-6 6-6h1100.5c3.3 0 6 2.7 6 6v21.72c0 3.3-2.7 6-6 6H226c-3.3 0-6-2.7-6-6z" fill="#333"/><path d="M1532.5 776.25c0 417.67-338.58 756.25-756.25 756.25S20 1193.92 20 776.25 358.58 20 776.25 20s756.25 338.58 756.25 756.25z" stroke="#000" stroke-opacity="0" stroke-width="3" fill-opacity="0"/><path d="M220 275.02c0-3.3 2.7-6 6-6h1100.5c3.3 0 6 2.7 6 6v21.72c0 3.3-2.7 6-6 6H226c-3.3 0-6-2.7-6-6z" fill="#333"/></g><g class="lucid-layer lucid-layer" lucid:layer-id="5s5tpoPBFkdJ" display="block"><path d="M1250.52 932.74c0 38.97-34.46 70.56-76.97 70.56-42.5 0-76.97-31.6-76.97-70.56 0-38.97 34.46-70.56 76.97-70.56 42.5 0 76.97 31.6 76.97 70.56z" fill="#fff"/><path d="M1135.2 308.74c0-3.3 2.7-6 6-6h64.7c3.3 0 6 2.7 6 6v658c0 3.3-2.7 6-6 6h-64.7c-3.3 0-6-2.7-6-6z" fill="#fff"/><path d="M1159.13 308.74c0-3.3 2.7-6 6-6h16.83c3.3 0 6 2.7 6 6v618c0 3.3-2.7 6-6 6h-16.83c-3.3 0-6-2.7-6-6z"/><path d="M1222.73 935.24c0 24.9-22.02 45.08-49.18 45.08-27.17 0-49.18-20.18-49.18-45.08s22-45.08 49.18-45.08c27.16 0 49.18 20.18 49.18 45.08z"/></g></g></svg>