<svg xmlns="http://www.w3.org/2000/svg" xmlns:lucid="lucid" width="1552.5" height="1552.5"><g lucid:page-tab-id="0_0"><g class="lucid-layer" fill="#FDD835" lucid:layer-id="ATZsIxCD-QD6" display="block"><path d="M1324.93 1258.82v-960l-61.14 82.45c-1.98 2.66-3.58 7.5-3.58 10.82v760.02c0 3.3 1.45 8.26 3.24 11.05zM1209.9 1258.82v-960l-61.14 82.45c-1.97 2.66-3.57 7.5-3.57 10.82v760.02c0 3.3 1.44 8.26 3.23 11.05zM1094.86 1258.82v-960l-61.13 82.45c-1.97 2.66-3.57 7.5-3.57 10.82v760.02c0 3.3 1.45 8.26 3.24 11.05zM979.83 1258.82v-960l-61.13 82.45c-1.98 2.66-3.58 7.5-3.58 10.82v760.02c0 3.3 1.45 8.26 3.25 11.05zM864.8 1258.82v-960l-61.14 82.45c-1.97 2.66-3.57 7.5-3.57 10.82v760.02c0 3.3 1.44 8.26 3.23 11.05zM749.76 1258.82v-960l-61.13 82.45c-1.97 2.66-3.57 7.5-3.57 10.82v760.02c0 3.3 1.45 8.26 3.24 11.05zM634.73 1258.82v-960l-61.13 82.45c-1.98 2.66-3.58 7.5-3.58 10.82v760.02c0 3.3 1.46 8.26 3.25 11.05zM519.7 1258.82v-960l-61.13 82.45c-1.98 2.66-3.58 7.5-3.58 10.82v760.02c0 3.3 1.44 8.26 3.24 11.05zM404.67 1258.82v-960l-61.14 82.45c-1.97 2.66-3.57 7.5-3.57 10.82v760.02c0 3.3 1.45 8.26 3.24 11.05zM289.63 1258.82v-960l-61.13 82.45c-1.97 2.66-3.57 7.5-3.57 10.82v760.02c0 3.3 1.45 8.26 3.24 11.05z" stroke="#aaa" stroke-width="8" fill="#FDD835"/></g><g class="lucid-layer" fill="#FDD835" lucid:layer-id="X7Zsy.pE0JQi" display="block"><path d="M220 1255.02c0-3.3 2.7-6 6-6h1100.5c3.3 0 6 2.7 6 6v21.72c0 3.3-2.7 6-6 6H226c-3.3 0-6-2.7-6-6z" fill="#FDD835"/><path d="M1532.5 776.25c0 417.67-338.58 756.25-756.25 756.25S20 1193.92 20 776.25 358.58 20 776.25 20s756.25 338.58 756.25 756.25z" stroke="#FDD835" stroke-opacity="0" stroke-width="3" fill-opacity="0"/><path d="M220 275.02c0-3.3 2.7-6 6-6h1100.5c3.3 0 6 2.7 6 6v21.72c0 3.3-2.7 6-6 6H226c-3.3 0-6-2.7-6-6z" fill="#FDD835"/></g><g class="lucid-layer" fill="#FDD835" lucid:layer-id="o7ZsoYZKMWB9" display="block"><path d="M1248.8 932.74c0 38.97-34.46 70.56-76.97 70.56-42.5 0-76.97-31.6-76.97-70.56 0-38.97 34.46-70.56 76.97-70.56 42.5 0 76.97 31.6 76.97 70.56z" fill="#aaa"/><path d="M1133.48 308.74c0-3.3 2.7-6 6-6h64.7c3.3 0 6 2.7 6 6v658c0 3.3-2.7 6-6 6h-64.7c-3.3 0-6-2.7-6-6z" fill="#aaa"/><path d="M1157.42 308.74c0-3.3 2.68-6 6-6h16.83c3.3 0 6 2.7 6 6v618c0 3.3-2.7 6-6 6h-16.83c-3.32 0-6-2.7-6-6z"/><path d="M1221 935.24c0 24.9-22 45.08-49.17 45.08-27.16 0-49.18-20.18-49.18-45.08s22.02-45.08 49.18-45.08 49.18 20.18 49.18 45.08z"/></g></g></svg>