<svg xmlns="http://www.w3.org/2000/svg" xmlns:lucid="lucid" width="1552.5" height="1552.5"><g lucid:page-tab-id="0_0"><g class="lucid-layer" fill="#FDD835" lucid:layer-id="zUZs.QaUaPt5" display="block"><path d="M1260.43 302.74v944.82l60.9-81.1c1.98-2.64 3.6-7.48 3.6-10.8v-747.8c0-3.33-1.47-8.26-3.28-11.04zM1145.77 302.74v944.82l60.9-81.1c2-2.64 3.6-7.48 3.6-10.8v-747.8c0-3.33-1.47-8.26-3.27-11.04zM1031.12 302.74v944.82l60.9-81.1c1.98-2.64 3.6-7.48 3.6-10.8v-747.8c0-3.33-1.47-8.26-3.28-11.04zM916.46 302.74v944.82l60.9-81.1c1.98-2.64 3.6-7.48 3.6-10.8v-747.8c0-3.33-1.47-8.26-3.28-11.04zM801.8 302.74v944.82l60.9-81.1c1.98-2.64 3.6-7.48 3.6-10.8v-747.8c0-3.33-1.47-8.26-3.28-11.04zM687.14 302.74v944.82l60.9-81.1c1.98-2.64 3.6-7.48 3.6-10.8v-747.8c0-3.33-1.47-8.26-3.28-11.04zM572.48 302.74v944.82l60.9-81.1c2-2.64 3.6-7.48 3.6-10.8v-747.8c0-3.33-1.47-8.26-3.27-11.04zM457.83 302.74v944.82l60.9-81.1c1.98-2.64 3.6-7.48 3.6-10.8v-747.8c0-3.33-1.47-8.26-3.28-11.04zM339.58 304.2v944.82l60.9-81.1c2-2.64 3.6-7.48 3.6-10.8v-747.8c0-3.32-1.47-8.26-3.27-11.04zM224.93 304.2v944.82l60.9-81.1c1.98-2.64 3.6-7.48 3.6-10.8v-747.8c0-3.32-1.47-8.26-3.28-11.04z" stroke="#aaa" stroke-width="8" fill="#FDD835"/><path d="M1249.55 934.2c0 38.97-34.46 70.56-76.97 70.56-42.5 0-76.97-31.6-76.97-70.56s34.47-70.55 76.98-70.55c42.5 0 76.97 31.6 76.97 70.55z" fill="#aaa"/><path d="M1134.23 310.2c0-3.3 2.7-6 6-6h64.7c3.3 0 6 2.7 6 6v658c0 3.32-2.7 6-6 6h-64.7c-3.3 0-6-2.68-6-6z" fill="#aaa"/><path d="M1158.17 310.2c0-3.3 2.68-6 6-6H1181c3.3 0 6 2.7 6 6v618c0 3.32-2.7 6-6 6h-16.83c-3.32 0-6-2.68-6-6z"/><path d="M1221.76 936.7c0 24.9-22.02 45.1-49.18 45.1s-49.18-20.2-49.18-45.1c0-24.9 22.02-45.08 49.18-45.08s49.18 20.18 49.18 45.08z"/></g><g class="lucid-layer" fill="#FDD835" lucid:layer-id="X7Zsy.pE0JQi" display="block"><path d="M220 1255.02c0-3.3 2.7-6 6-6h1100.5c3.3 0 6 2.7 6 6v21.72c0 3.3-2.7 6-6 6H226c-3.3 0-6-2.7-6-6z" fill="#FDD835"/><path d="M1532.5 776.25c0 417.67-338.58 756.25-756.25 756.25S20 1193.92 20 776.25 358.58 20 776.25 20s756.25 338.58 756.25 756.25z" stroke="#FDD835" stroke-opacity="0" stroke-width="3" fill-opacity="0"/><path d="M220 275.02c0-3.3 2.7-6 6-6h1100.5c3.3 0 6 2.7 6 6v21.72c0 3.3-2.7 6-6 6H226c-3.3 0-6-2.7-6-6z" fill="#FDD835"/></g></g></svg>