<svg xmlns="http://www.w3.org/2000/svg" xmlns:lucid="lucid" width="1552.5" height="1552.5"><g lucid:page-tab-id="0_0"><g class="lucid-layer" fill="#FDD835" lucid:layer-id="zUZs.QaUaPt5" display="block"><path d="M733.27 302.74v944.82l29.58-80.26c1.15-3.1 2.08-8.32 2.08-11.63V407.85c0-3.32-.82-8.56-1.83-11.72zM676.98 302.74v944.82l29.58-80.26c1.15-3.1 2.08-8.32 2.08-11.63V407.85c0-3.32-.82-8.56-1.83-11.72zM620.7 302.74v944.82l29.58-80.26c1.14-3.1 2.07-8.32 2.07-11.63V407.85c0-3.32-.8-8.56-1.82-11.72zM564.4 302.74v944.82l29.6-80.26c1.14-3.1 2.07-8.32 2.07-11.63V407.85c0-3.32-.82-8.56-1.83-11.72zM508.12 302.74v944.82l29.58-80.26c1.15-3.1 2.08-8.32 2.08-11.63V407.85c0-3.32-.82-8.56-1.83-11.72zM451.83 302.74v944.82l29.6-80.26c1.13-3.1 2.06-8.32 2.06-11.63V407.85c0-3.32-.82-8.56-1.83-11.72zM395.55 302.74v944.82l29.58-80.26c1.15-3.1 2.08-8.32 2.08-11.63V407.85c0-3.32-.8-8.56-1.82-11.72zM339.26 302.74v944.82l29.58-80.26c1.15-3.1 2.08-8.32 2.08-11.63V407.85c0-3.32-.82-8.56-1.83-11.72zM281.2 304.2v944.82l29.6-80.26c1.15-3.1 2.07-8.32 2.07-11.63V409.3c0-3.3-.8-8.55-1.82-11.7zM224.93 304.2v944.82l29.58-80.26c1.16-3.1 2.1-8.32 2.1-11.63V409.3c0-3.3-.83-8.55-1.84-11.7z" fill="#FDD835"/><path d="M838.87 930.55c0 38.97-34.46 70.55-76.97 70.55-42.5 0-76.97-31.58-76.97-70.55S719.4 860 761.9 860c42.5 0 76.97 31.58 76.97 70.55z" fill="#aaa"/><path d="M723.55 306.55c0-3.32 2.7-6 6-6h64.7c3.3 0 6 2.68 6 6v658c0 3.3-2.7 6-6 6h-64.7c-3.3 0-6-2.7-6-6z" fill="#aaa"/><path d="M747.48 306.55c0-3.32 2.7-6 6-6h16.83c3.32 0 6 2.68 6 6v618c0 3.3-2.68 6-6 6H753.5c-3.3 0-6-2.7-6-6z"/><path d="M811.08 933.05c0 24.9-22.02 45.08-49.18 45.08-27.17 0-49.18-20.18-49.18-45.08s22-45.1 49.18-45.1c27.16 0 49.18 20.2 49.18 45.1z"/></g><g class="lucid-layer" fill="#FDD835" lucid:layer-id="X7Zsy.pE0JQi" display="block"><path d="M220 1255.02c0-3.3 2.7-6 6-6h1100.5c3.3 0 6 2.7 6 6v21.72c0 3.3-2.7 6-6 6H226c-3.3 0-6-2.7-6-6z" fill="#FDD835"/><path d="M1532.5 776.25c0 417.67-338.58 756.25-756.25 756.25S20 1193.92 20 776.25 358.58 20 776.25 20s756.25 338.58 756.25 756.25z" stroke="#FDD835" stroke-opacity="0" stroke-width="3" fill-opacity="0"/><path d="M220 275.02c0-3.3 2.7-6 6-6h1100.5c3.3 0 6 2.7 6 6v21.72c0 3.3-2.7 6-6 6H226c-3.3 0-6-2.7-6-6z" fill="#FDD835"/></g></g></svg>