<svg xmlns="http://www.w3.org/2000/svg" xmlns:lucid="lucid" width="1245" height="1245"><g lucid:page-tab-id="0_0"><path d="M259.67 677.5H987V207.24c0-3.3-2.7-6-6-6H265.67c-3.32 0-6 2.7-6 6z" fill="#44739e" class="lucid-layer"  lucid:layer-id="nSZsX06t.m7T" display="block"/><g class="lucid-layer" fill="#44739e" lucid:layer-id="X7Zsy.pE0JQi" display="block"><path d="M215 1023.5c0-3.3 2.7-6 6-6h808c3.3 0 6 2.7 6 6v33c0 3.3-2.7 6-6 6H221c-3.3 0-6-2.7-6-6z" fill="#44739e"/><path d="M1225 622.5c0 332.75-269.75 602.5-602.5 602.5S20 955.25 20 622.5 289.75 20 622.5 20 1225 289.75 1225 622.5z" stroke="#44739e" stroke-opacity="0" stroke-width="3" fill-opacity="0"/><path d="M233 183.5c0-3.3 2.7-6 6-6h768c3.3 0 6 2.7 6 6v8c0 3.3-2.7 6-6 6H239c-3.3 0-6-2.7-6-6z" fill="#44739e"/><path d="M999 1022.5c-3.3 0-6-2.7-6-6v-833c0-3.3 2.7-6 6-6h8c3.3 0 6 2.7 6 6v833c0 3.3-2.7 6-6 6zM239 1022.5c-3.3 0-6-2.7-6-6v-833c0-3.3 2.7-6 6-6h8c3.3 0 6 2.7 6 6v833c0 3.3-2.7 6-6 6z" fill="#44739e"/></g><g class="lucid-layer" fill="#44739e" lucid:layer-id="o7ZsoYZKMWB9" display="block" ><path d="M610.6 663.5c0-3.3 2.67-6 6-6h16.8c3.33 0 6 2.7 6 6v138c0 3.3-2.67 6-6 6h-16.8c-3.33 0-6-2.7-6-6z"/><path d="M674.18 810c0 24.9-22.02 45.08-49.18 45.08S575.82 834.9 575.82 810s22.02-45.08 49.18-45.08 49.18 20.18 49.18 45.08z"/></g></g></svg>