<svg xmlns="http://www.w3.org/2000/svg" xmlns:lucid="lucid" width="1245" height="1245"><g lucid:page-tab-id="0_0"><g class="lucid-layer" lucid:layer-id="X7Zsy.pE0JQi" display="block"><path d="M215 1026c0-3.3 2.7-6 6-6h808c3.3 0 6 2.7 6 6v33c0 3.3-2.7 6-6 6H221c-3.3 0-6-2.7-6-6z" stroke="#5e5e5e" fill="#333"/><path d="M1225 622.5c0 332.75-269.75 602.5-602.5 602.5S20 955.25 20 622.5 289.75 20 622.5 20 1225 289.75 1225 622.5z" stroke="#000" stroke-opacity="0" stroke-width="3" fill-opacity="0"/><path d="M235 186c0-3.3 2.7-6 6-6h768c3.3 0 6 2.7 6 6v8c0 3.3-2.7 6-6 6H241c-3.3 0-6-2.7-6-6z" stroke="#5e5e5e" fill="#333"/><path d="M1001 1025c-3.3 0-6-2.7-6-6V186c0-3.3 2.7-6 6-6h8c3.3 0 6 2.7 6 6v833c0 3.3-2.7 6-6 6zM241 1025c-3.3 0-6-2.7-6-6V186c0-3.3 2.7-6 6-6h8c3.3 0 6 2.7 6 6v833c0 3.3-2.7 6-6 6z" stroke="#5e5e5e" fill="#333"/></g><g class="lucid-layer" lucid:layer-id="bTZsJqN6Pbl_" display="block" stroke="#fff" stroke-width="10" fill="#b2b2b2"><path d="M265 1020h715l-51.74-79.96c-1.8-2.78-5.95-5.04-9.26-5.04H329.33c-3.3 0-7.52 2.2-9.4 4.95z"/><path d="M265 940h715l-51.74-79.96c-1.8-2.78-5.95-5.04-9.26-5.04H329.33c-3.3 0-7.52 2.2-9.4 4.95z"/><path d="M265 860h715l-51.74-79.96c-1.8-2.78-5.95-5.04-9.26-5.04H329.33c-3.3 0-7.52 2.2-9.4 4.95z"/><path d="M265 780h715l-51.74-79.96c-1.8-2.78-5.95-5.04-9.26-5.04H329.33c-3.3 0-7.52 2.2-9.4 4.95z"/><path d="M265 700h715l-51.74-79.96c-1.8-2.78-5.95-5.04-9.26-5.04H329.33c-3.3 0-7.52 2.2-9.4 4.95z"/><path d="M265 620h715l-51.74-79.96c-1.8-2.78-5.95-5.04-9.26-5.04H329.33c-3.3 0-7.52 2.2-9.4 4.95z"/><path d="M265 540h715l-51.74-79.96c-1.8-2.78-5.95-5.04-9.26-5.04H329.33c-3.3 0-7.52 2.2-9.4 4.95z"/><path d="M265 460h715l-51.74-79.96c-1.8-2.78-5.95-5.04-9.26-5.04H329.33c-3.3 0-7.52 2.2-9.4 4.95z"/><path d="M265 380h715l-51.74-79.96c-1.8-2.78-5.95-5.04-9.26-5.04H329.33c-3.3 0-7.52 2.2-9.4 4.95z"/><path d="M265 300h715l-51.74-79.96c-1.8-2.78-5.95-5.04-9.26-5.04H329.33c-3.3 0-7.52 2.2-9.4 4.95z"/></g><g class="lucid-layer" lucid:layer-id="o7ZsoYZKMWB9" display="block"><path d="M948.94 830c0 38.97-34.46 70.56-76.97 70.56-42.5 0-76.97-31.6-76.97-70.56 0-38.97 34.46-70.56 76.97-70.56 42.5 0 76.97 31.6 76.97 70.56z" fill="#fff"/><path d="M833.62 206c0-3.3 2.7-6 6-6h64.7c3.3 0 6 2.7 6 6v658c0 3.3-2.7 6-6 6h-64.7c-3.3 0-6-2.7-6-6z" fill="#fff"/><path d="M857.56 206c0-3.3 2.68-6 6-6h16.82c3.32 0 6 2.7 6 6v618c0 3.3-2.68 6-6 6h-16.82c-3.32 0-6-2.7-6-6z"/><path d="M921.15 832.5c0 24.9-22.02 45.08-49.18 45.08S822.8 857.4 822.8 832.5s22-45.08 49.17-45.08c27.16 0 49.18 20.18 49.18 45.08z"/><path d="M215 1026c0-3.3 2.7-6 6-6h808c3.3 0 6 2.7 6 6v33c0 3.3-2.7 6-6 6H221c-3.3 0-6-2.7-6-6z" stroke="#5e5e5e" fill="#333"/></g></g></svg>