<svg xmlns="http://www.w3.org/2000/svg" xmlns:lucid="lucid" width="1245" height="1245"><g lucid:page-tab-id="0_0"><g class="lucid-layer" lucid:layer-id="QRZseq4.oe.L" display="block" stroke="#fff" stroke-width="10" fill="#b2b2b2"><path d="M265 405h715l-74.27-23.2c-3.17-1-8.42-1.8-11.73-1.8H366c-3.3 0-8.6.68-11.8 1.53z"/><path d="M265 385h715l-74.27-23.2c-3.17-1-8.42-1.8-11.73-1.8H366c-3.3 0-8.6.68-11.8 1.53z"/><path d="M265 365h715l-74.27-23.2c-3.17-1-8.42-1.8-11.73-1.8H366c-3.3 0-8.6.68-11.8 1.53z"/><path d="M265 345h715l-74.27-23.2c-3.17-1-8.42-1.8-11.73-1.8H366c-3.3 0-8.6.68-11.8 1.53z"/><path d="M265 325h715l-74.27-23.2c-3.17-1-8.42-1.8-11.73-1.8H366c-3.3 0-8.6.68-11.8 1.53z"/><path d="M265 305h715l-74.27-23.2c-3.17-1-8.42-1.8-11.73-1.8H366c-3.3 0-8.6.68-11.8 1.53z"/><path d="M265 285h715l-74.27-23.2c-3.17-1-8.42-1.8-11.73-1.8H366c-3.3 0-8.6.68-11.8 1.53z"/><path d="M265 265h715l-74.27-23.2c-3.17-1-8.42-1.8-11.73-1.8H366c-3.3 0-8.6.68-11.8 1.53z"/><path d="M265 245h715l-74.27-23.2c-3.17-1-8.42-1.8-11.73-1.8H366c-3.3 0-8.6.68-11.8 1.53z"/><path d="M265 225h715l-74.27-23.2c-3.17-1-8.42-1.8-11.73-1.8H366c-3.3 0-8.6.68-11.8 1.53z"/></g><g class="lucid-layer" lucid:layer-id="X7Zsy.pE0JQi" display="block"><path d="M215 1026c0-3.3 2.7-6 6-6h808c3.3 0 6 2.7 6 6v33c0 3.3-2.7 6-6 6H221c-3.3 0-6-2.7-6-6z" fill="#333"/><path d="M1225 622.5c0 332.75-269.75 602.5-602.5 602.5S20 955.25 20 622.5 289.75 20 622.5 20 1225 289.75 1225 622.5z" stroke="#000" stroke-opacity="0" stroke-width="3" fill-opacity="0"/><path d="M233 186c0-3.3 2.7-6 6-6h768c3.3 0 6 2.7 6 6v8c0 3.3-2.7 6-6 6H239c-3.3 0-6-2.7-6-6z" fill="#333"/><path d="M999 1025c-3.3 0-6-2.7-6-6V186c0-3.3 2.7-6 6-6h8c3.3 0 6 2.7 6 6v833c0 3.3-2.7 6-6 6zM239 1025c-3.3 0-6-2.7-6-6V186c0-3.3 2.7-6 6-6h8c3.3 0 6 2.7 6 6v833c0 3.3-2.7 6-6 6z" fill="#333"/></g><g class="lucid-layer" lucid:layer-id="o7ZsoYZKMWB9" display="block"><path d="M948.94 830c0 38.97-34.46 70.56-76.97 70.56-42.5 0-76.97-31.6-76.97-70.56 0-38.97 34.46-70.56 76.97-70.56 42.5 0 76.97 31.6 76.97 70.56z" fill="#fff"/><path d="M833.62 206c0-3.3 2.7-6 6-6h64.7c3.3 0 6 2.7 6 6v658c0 3.3-2.7 6-6 6h-64.7c-3.3 0-6-2.7-6-6z" fill="#fff"/><path d="M857.56 206c0-3.3 2.68-6 6-6h16.82c3.32 0 6 2.7 6 6v618c0 3.3-2.68 6-6 6h-16.82c-3.32 0-6-2.7-6-6z"/><path d="M921.15 832.5c0 24.9-22.02 45.08-49.18 45.08S822.8 857.4 822.8 832.5s22-45.08 49.17-45.08c27.16 0 49.18 20.18 49.18 45.08z"/></g></g></svg>